# xmcd CD database file
#
# Track frame offsets:
#	150
#	15380
#	34268
#	57182
#	74328
#	118460
#	135536
#	146852
#	164235
#	226207
#	254374
#	277692
#
# Disc length: 4060 seconds
#
# Revision: 3
# Processed by: cddbd v1.5.2PL0 Copyright (c) Steve Scherf et al.
# Submitted via: CDex 1.51
#
DISCID=b10fda0c
DTITLE=B.B. KING and BOBBY  BLAND - Together For The First Time...Live
DYEAR=1900
DGENRE=Blues
TTITLE0=3 O'Clock Blues
TTITLE1=It´s My Own Fault
TTITLE2=Driftin' Blues
TTITLE3=That's The Way Love Is
TTITLE4=I´m Sorry
TTITLE5=I´ll Take Care Of You
TTITLE6=Don´t Cry No More
TTITLE7=Don´t Want A Soul Hangin' Around
TTITLE8=Medley;
TTITLE9=Everybody Wants To Know Why I Sing The Blues
TTITLE10=Goin' Down Slow
TTITLE11=I Like To Live The Love
EXTD=
EXTT0=
EXTT1=
EXTT2=
EXTT3=
EXTT4=
EXTT5=
EXTT6=
EXTT7=
EXTT8=Good To Be Back Home, Driving Wheel, Rock Me Momma, Black Night, Cherry Red, It´s My Own Fault, 3 o´Clock Blues, Worried Life Blues, Chains Of Love, Gonna Get Me An Old Woman
EXTT9=
EXTT10=
EXTT11=
PLAYORDER=
